<mxfile host="app.diagrams.net" modified="2021-07-05T02:36:43.616Z" agent="5.0 (Windows NT 10.0; Win64; x64) AppleWebKit/537.36 (KHTML, like Gecko) Chrome/91.0.4472.124 Safari/537.36" etag="nT7kuEF6YB89DakyYOen" version="14.8.4" type="github">
  <diagram id="6I0OCvxSQrVGMHxT2VVA" name="Page-1">
    <mxGraphModel dx="1564" dy="2036" grid="1" gridSize="10" guides="1" tooltips="1" connect="1" arrows="1" fold="1" page="1" pageScale="1" pageWidth="850" pageHeight="1100" math="0" shadow="0">
      <root>
        <mxCell id="0" />
        <mxCell id="1" parent="0" />
        <mxCell id="8nlqihTdNNTVfNvSGMPw-33" value="" style="whiteSpace=wrap;html=1;strokeColor=none;strokeWidth=1;fillColor=#f5f5f5;fontSize=14;" vertex="1" parent="1">
          <mxGeometry x="194" y="-40" width="1156" height="400" as="geometry" />
        </mxCell>
        <mxCell id="dKdSaXE48SgPbhcamS2K-30" value="S" style="whiteSpace=wrap;html=1;strokeColor=none;strokeWidth=1;fillColor=#f5f5f5;fontSize=14;" parent="1" vertex="1">
          <mxGeometry x="194" y="420" width="1156" height="400" as="geometry" />
        </mxCell>
        <mxCell id="8nlqihTdNNTVfNvSGMPw-26" value="消费者组" style="html=1;whiteSpace=wrap;shape=mxgraph.archimate3.application;appType=node;archiType=square;fontSize=14;verticalAlign=top;fillColor=#FFFF99;" vertex="1" parent="1">
          <mxGeometry x="1055" y="15" width="230" height="290" as="geometry" />
        </mxCell>
        <mxCell id="8nlqihTdNNTVfNvSGMPw-1" value="搜索存储" style="html=1;whiteSpace=wrap;fillColor=#AFFFAF;shape=mxgraph.archimate3.application;appType=node;archiType=square;fontSize=14;verticalAlign=top;" vertex="1" parent="1">
          <mxGeometry x="1055" y="545" width="240" height="150" as="geometry" />
        </mxCell>
        <mxCell id="dKdSaXE48SgPbhcamS2K-32" value="" style="whiteSpace=wrap;html=1;strokeColor=none;strokeWidth=1;fillColor=#f5f5f5;fontSize=14;" parent="1" vertex="1">
          <mxGeometry x="170" y="-365" width="1075" height="140" as="geometry" />
        </mxCell>
        <mxCell id="dKdSaXE48SgPbhcamS2K-33" value="关系型数据库" style="html=1;whiteSpace=wrap;fillColor=#AFFFAF;shape=mxgraph.archimate3.application;appType=node;archiType=square;fontSize=14;verticalAlign=top;" parent="1" vertex="1">
          <mxGeometry x="230" y="545" width="420" height="150" as="geometry" />
        </mxCell>
        <mxCell id="dKdSaXE48SgPbhcamS2K-35" value="&lt;div&gt;&lt;/div&gt;MySQL主" style="html=1;whiteSpace=wrap;fillColor=#AFFFAF;shape=mxgraph.archimate3.tech;techType=sysSw;fontSize=14;" parent="1" vertex="1">
          <mxGeometry x="284" y="595" width="140" height="60" as="geometry" />
        </mxCell>
        <mxCell id="dKdSaXE48SgPbhcamS2K-37" value="&lt;div&gt;ElasticSearch&lt;/div&gt;" style="html=1;whiteSpace=wrap;fillColor=#AFFFAF;shape=mxgraph.archimate3.tech;techType=sysSw;fontSize=14;" parent="1" vertex="1">
          <mxGeometry x="1100" y="595" width="140" height="60" as="geometry" />
        </mxCell>
        <mxCell id="dKdSaXE48SgPbhcamS2K-38" style="edgeStyle=elbowEdgeStyle;rounded=1;elbow=vertical;html=1;startSize=10;endArrow=open;endFill=0;endSize=10;jettySize=auto;orthogonalLoop=1;strokeColor=#808080;fontSize=14;entryX=0.25;entryY=1;" parent="1" target="dKdSaXE48SgPbhcamS2K-49" edge="1">
          <mxGeometry relative="1" as="geometry">
            <mxPoint x="194" y="-325" as="sourcePoint" />
          </mxGeometry>
        </mxCell>
        <mxCell id="dKdSaXE48SgPbhcamS2K-40" value="Service" style="html=1;whiteSpace=wrap;fillColor=#AFFFAF;shape=mxgraph.archimate3.service;fontSize=14;" parent="1" vertex="1">
          <mxGeometry x="180" y="-325" width="150" height="50" as="geometry" />
        </mxCell>
        <mxCell id="dKdSaXE48SgPbhcamS2K-46" style="edgeStyle=elbowEdgeStyle;rounded=1;elbow=vertical;html=1;startSize=10;endArrow=open;endFill=0;endSize=10;jettySize=auto;orthogonalLoop=1;strokeColor=#808080;fontSize=14;" parent="1" source="dKdSaXE48SgPbhcamS2K-47" edge="1">
          <mxGeometry relative="1" as="geometry">
            <mxPoint x="421.5" y="-350" as="targetPoint" />
          </mxGeometry>
        </mxCell>
        <mxCell id="dKdSaXE48SgPbhcamS2K-47" value="Module" style="shape=component;align=center;fillColor=#99ffff;gradientColor=none;fontSize=14;" parent="1" vertex="1">
          <mxGeometry x="269" y="-600" width="185" height="80" as="geometry" />
        </mxCell>
        <mxCell id="dKdSaXE48SgPbhcamS2K-48" style="edgeStyle=elbowEdgeStyle;rounded=1;elbow=vertical;html=1;startSize=10;endArrow=open;endFill=0;endSize=10;jettySize=auto;orthogonalLoop=1;strokeColor=#808080;fontSize=14;" parent="1" source="dKdSaXE48SgPbhcamS2K-49" edge="1">
          <mxGeometry relative="1" as="geometry">
            <mxPoint x="629.5" y="-350" as="targetPoint" />
          </mxGeometry>
        </mxCell>
        <mxCell id="dKdSaXE48SgPbhcamS2K-49" value="Module" style="shape=component;align=center;fillColor=#99ffff;gradientColor=none;fontSize=14;" parent="1" vertex="1">
          <mxGeometry x="537" y="-550" width="185" height="80" as="geometry" />
        </mxCell>
        <mxCell id="dKdSaXE48SgPbhcamS2K-50" style="edgeStyle=elbowEdgeStyle;rounded=1;elbow=vertical;html=1;startSize=10;endArrow=open;endFill=0;endSize=10;jettySize=auto;orthogonalLoop=1;strokeColor=#808080;fontSize=14;" parent="1" source="dKdSaXE48SgPbhcamS2K-51" edge="1">
          <mxGeometry relative="1" as="geometry">
            <mxPoint x="854" y="-350" as="targetPoint" />
          </mxGeometry>
        </mxCell>
        <mxCell id="dKdSaXE48SgPbhcamS2K-51" value="Module" style="shape=component;align=center;fillColor=#99ffff;gradientColor=none;fontSize=14;" parent="1" vertex="1">
          <mxGeometry x="761.5" y="-480" width="185" height="80" as="geometry" />
        </mxCell>
        <mxCell id="dKdSaXE48SgPbhcamS2K-52" style="edgeStyle=elbowEdgeStyle;rounded=1;elbow=vertical;html=1;startSize=10;endArrow=open;endFill=0;endSize=10;jettySize=auto;orthogonalLoop=1;strokeColor=#808080;fontSize=14;" parent="1" source="dKdSaXE48SgPbhcamS2K-53" edge="1">
          <mxGeometry relative="1" as="geometry">
            <mxPoint x="1061.5" y="-350" as="targetPoint" />
          </mxGeometry>
        </mxCell>
        <mxCell id="dKdSaXE48SgPbhcamS2K-53" value="Module" style="shape=component;align=center;fillColor=#99ffff;gradientColor=none;fontSize=14;" parent="1" vertex="1">
          <mxGeometry x="1050" y="-470" width="185" height="80" as="geometry" />
        </mxCell>
        <mxCell id="dKdSaXE48SgPbhcamS2K-54" value="Function" style="html=1;whiteSpace=wrap;fillColor=#ffff99;shape=mxgraph.archimate3.application;appType=func;archiType=rounded;fontSize=14;" parent="1" vertex="1">
          <mxGeometry x="407.5" y="-350" width="150" height="75" as="geometry" />
        </mxCell>
        <mxCell id="dKdSaXE48SgPbhcamS2K-55" value="Collaboration" style="html=1;whiteSpace=wrap;fillColor=#ffff99;shape=mxgraph.archimate3.application;appType=collab;archiType=square;fontSize=14;" parent="1" vertex="1">
          <mxGeometry x="615.5" y="-350" width="150" height="75" as="geometry" />
        </mxCell>
        <mxCell id="dKdSaXE48SgPbhcamS2K-56" value="Application Event" style="html=1;whiteSpace=wrap;fillColor=#ffff99;shape=mxgraph.archimate3.application;appType=event;archiType=rounded;fontSize=14;" parent="1" vertex="1">
          <mxGeometry x="840" y="-350" width="150" height="75" as="geometry" />
        </mxCell>
        <mxCell id="dKdSaXE48SgPbhcamS2K-57" value="Process" style="html=1;whiteSpace=wrap;fillColor=#ffff99;shape=mxgraph.archimate3.application;appType=proc;archiType=rounded;fontSize=14;" parent="1" vertex="1">
          <mxGeometry x="1047.5" y="-350" width="150" height="75" as="geometry" />
        </mxCell>
        <mxCell id="dKdSaXE48SgPbhcamS2K-58" value="存储层" style="text;html=1;strokeColor=none;fillColor=none;align=center;verticalAlign=middle;whiteSpace=wrap;fontSize=14;" parent="1" vertex="1">
          <mxGeometry x="1290" y="615" width="240" height="20" as="geometry" />
        </mxCell>
        <mxCell id="dKdSaXE48SgPbhcamS2K-59" value="逻辑层&lt;br&gt;" style="text;html=1;strokeColor=none;fillColor=none;align=center;verticalAlign=middle;whiteSpace=wrap;fontSize=14;" parent="1" vertex="1">
          <mxGeometry x="1290" y="165" width="240" height="20" as="geometry" />
        </mxCell>
        <mxCell id="dKdSaXE48SgPbhcamS2K-61" style="edgeStyle=elbowEdgeStyle;rounded=1;elbow=vertical;html=1;dashed=1;startSize=10;endArrow=block;endFill=0;endSize=10;jettySize=auto;orthogonalLoop=1;strokeColor=#808080;fontSize=14;" parent="1" source="dKdSaXE48SgPbhcamS2K-62" edge="1">
          <mxGeometry relative="1" as="geometry">
            <mxPoint x="421.5" y="-350" as="targetPoint" />
          </mxGeometry>
        </mxCell>
        <mxCell id="dKdSaXE48SgPbhcamS2K-62" value="" style="html=1;whiteSpace=wrap;fillColor=#ffff99;shape=mxgraph.archimate3.actor;fontSize=14;" parent="1" vertex="1">
          <mxGeometry x="219" y="-460" width="50" height="95" as="geometry" />
        </mxCell>
        <mxCell id="dKdSaXE48SgPbhcamS2K-63" value="Title" style="text;strokeColor=none;fillColor=none;html=1;fontSize=24;fontStyle=1;verticalAlign=middle;align=center;" parent="1" vertex="1">
          <mxGeometry x="80" y="-600" width="1590" height="40" as="geometry" />
        </mxCell>
        <mxCell id="8nlqihTdNNTVfNvSGMPw-2" value="&lt;div&gt;&lt;/div&gt;MySQL从" style="html=1;whiteSpace=wrap;fillColor=#AFFFAF;shape=mxgraph.archimate3.tech;techType=sysSw;fontSize=14;" vertex="1" parent="1">
          <mxGeometry x="461.5" y="595" width="140" height="60" as="geometry" />
        </mxCell>
        <mxCell id="8nlqihTdNNTVfNvSGMPw-6" value="" style="endArrow=none;dashed=1;html=1;" edge="1" parent="1" source="dKdSaXE48SgPbhcamS2K-35" target="8nlqihTdNNTVfNvSGMPw-2">
          <mxGeometry width="50" height="50" relative="1" as="geometry">
            <mxPoint x="540" y="1070" as="sourcePoint" />
            <mxPoint x="590" y="1020" as="targetPoint" />
          </mxGeometry>
        </mxCell>
        <mxCell id="8nlqihTdNNTVfNvSGMPw-7" value="Module" style="shape=component;align=center;fillColor=#99ffff;gradientColor=none;fontSize=14;" vertex="1" parent="1">
          <mxGeometry x="1045" y="-590" width="185" height="80" as="geometry" />
        </mxCell>
        <mxCell id="8nlqihTdNNTVfNvSGMPw-8" value="Module" style="shape=component;align=center;fillColor=#99ffff;gradientColor=none;fontSize=14;" vertex="1" parent="1">
          <mxGeometry x="829" y="-570" width="185" height="80" as="geometry" />
        </mxCell>
        <mxCell id="8nlqihTdNNTVfNvSGMPw-11" value="MQ" style="html=1;whiteSpace=wrap;fillColor=#AFFFAF;shape=mxgraph.archimate3.application;appType=node;archiType=square;fontSize=14;verticalAlign=top;" vertex="1" parent="1">
          <mxGeometry x="722" y="461" width="230" height="290" as="geometry" />
        </mxCell>
        <mxCell id="8nlqihTdNNTVfNvSGMPw-12" value="&lt;div&gt;&lt;/div&gt;Queue" style="html=1;whiteSpace=wrap;fillColor=#AFFFAF;shape=mxgraph.archimate3.tech;techType=sysSw;fontSize=14;" vertex="1" parent="1">
          <mxGeometry x="767" y="511" width="140" height="60" as="geometry" />
        </mxCell>
        <mxCell id="8nlqihTdNNTVfNvSGMPw-13" value="Queue&lt;div&gt;&lt;/div&gt;" style="html=1;whiteSpace=wrap;fillColor=#AFFFAF;shape=mxgraph.archimate3.tech;techType=sysSw;fontSize=14;" vertex="1" parent="1">
          <mxGeometry x="767" y="591" width="140" height="60" as="geometry" />
        </mxCell>
        <mxCell id="8nlqihTdNNTVfNvSGMPw-14" value="Queue&lt;div&gt;&lt;/div&gt;" style="html=1;whiteSpace=wrap;fillColor=#AFFFAF;shape=mxgraph.archimate3.tech;techType=sysSw;fontSize=14;" vertex="1" parent="1">
          <mxGeometry x="767" y="671" width="140" height="60" as="geometry" />
        </mxCell>
        <mxCell id="8nlqihTdNNTVfNvSGMPw-18" value="" style="endArrow=classic;html=1;entryX=0.502;entryY=1;entryDx=0;entryDy=0;entryPerimeter=0;" edge="1" parent="1" source="dKdSaXE48SgPbhcamS2K-33" target="8nlqihTdNNTVfNvSGMPw-27">
          <mxGeometry width="50" height="50" relative="1" as="geometry">
            <mxPoint x="640" y="620" as="sourcePoint" />
            <mxPoint x="440" y="632.5" as="targetPoint" />
          </mxGeometry>
        </mxCell>
        <mxCell id="8nlqihTdNNTVfNvSGMPw-20" value="" style="endArrow=classic;html=1;exitX=1;exitY=1;exitDx=0;exitDy=0;exitPerimeter=0;" edge="1" parent="1" source="8nlqihTdNNTVfNvSGMPw-27" target="8nlqihTdNNTVfNvSGMPw-11">
          <mxGeometry width="50" height="50" relative="1" as="geometry">
            <mxPoint x="515" y="595" as="sourcePoint" />
            <mxPoint x="740" y="570" as="targetPoint" />
          </mxGeometry>
        </mxCell>
        <mxCell id="8nlqihTdNNTVfNvSGMPw-22" value="消费者1" style="html=1;whiteSpace=wrap;fillColor=#ffff99;shape=mxgraph.archimate3.application;appType=func;archiType=rounded;fontSize=14;" vertex="1" parent="1">
          <mxGeometry x="1100" y="95" width="150" height="75" as="geometry" />
        </mxCell>
        <mxCell id="8nlqihTdNNTVfNvSGMPw-23" value="" style="endArrow=classic;html=1;" edge="1" parent="1" source="8nlqihTdNNTVfNvSGMPw-11" target="8nlqihTdNNTVfNvSGMPw-26">
          <mxGeometry width="50" height="50" relative="1" as="geometry">
            <mxPoint x="810" y="760" as="sourcePoint" />
            <mxPoint x="1040" y="595" as="targetPoint" />
          </mxGeometry>
        </mxCell>
        <mxCell id="8nlqihTdNNTVfNvSGMPw-25" value="消费者2" style="html=1;whiteSpace=wrap;fillColor=#ffff99;shape=mxgraph.archimate3.application;appType=func;archiType=rounded;fontSize=14;" vertex="1" parent="1">
          <mxGeometry x="1100" y="195" width="150" height="75" as="geometry" />
        </mxCell>
        <mxCell id="8nlqihTdNNTVfNvSGMPw-27" value="生产者组" style="html=1;whiteSpace=wrap;shape=mxgraph.archimate3.application;appType=node;archiType=square;fontSize=14;verticalAlign=top;fillColor=#FFFF99;" vertex="1" parent="1">
          <mxGeometry x="760" y="15" width="230" height="290" as="geometry" />
        </mxCell>
        <mxCell id="8nlqihTdNNTVfNvSGMPw-28" value="生产者1" style="html=1;whiteSpace=wrap;fillColor=#ffff99;shape=mxgraph.archimate3.application;appType=event;archiType=rounded;fontSize=14;" vertex="1" parent="1">
          <mxGeometry x="805" y="80" width="150" height="75" as="geometry" />
        </mxCell>
        <mxCell id="8nlqihTdNNTVfNvSGMPw-29" value="生产者2" style="html=1;whiteSpace=wrap;fillColor=#ffff99;shape=mxgraph.archimate3.application;appType=event;archiType=rounded;fontSize=14;" vertex="1" parent="1">
          <mxGeometry x="805" y="192.5" width="150" height="75" as="geometry" />
        </mxCell>
        <mxCell id="8nlqihTdNNTVfNvSGMPw-38" value="" style="endArrow=classic;html=1;" edge="1" parent="1" source="8nlqihTdNNTVfNvSGMPw-26" target="8nlqihTdNNTVfNvSGMPw-1">
          <mxGeometry width="50" height="50" relative="1" as="geometry">
            <mxPoint x="790" y="520" as="sourcePoint" />
            <mxPoint x="840" y="470" as="targetPoint" />
          </mxGeometry>
        </mxCell>
        <mxCell id="8nlqihTdNNTVfNvSGMPw-39" value="Module" style="shape=component;align=center;fillColor=#99ffff;gradientColor=none;fontSize=14;" vertex="1" parent="1">
          <mxGeometry x="1295" y="-520" width="185" height="80" as="geometry" />
        </mxCell>
        <mxCell id="8nlqihTdNNTVfNvSGMPw-40" value="生产组" style="html=1;whiteSpace=wrap;shape=mxgraph.archimate3.application;appType=node;archiType=square;fontSize=14;verticalAlign=top;fillColor=#FFFF99;" vertex="1" parent="1">
          <mxGeometry x="280" y="15" width="230" height="290" as="geometry" />
        </mxCell>
        <mxCell id="8nlqihTdNNTVfNvSGMPw-43" value="生产者" style="html=1;whiteSpace=wrap;shape=mxgraph.archimate3.service;fontSize=14;fillColor=#FFFF99;" vertex="1" parent="1">
          <mxGeometry x="325" y="95" width="150" height="50" as="geometry" />
        </mxCell>
        <mxCell id="8nlqihTdNNTVfNvSGMPw-44" value="生产者" style="html=1;whiteSpace=wrap;shape=mxgraph.archimate3.service;fontSize=14;fillColor=#FFFF99;" vertex="1" parent="1">
          <mxGeometry x="325" y="180" width="150" height="50" as="geometry" />
        </mxCell>
      </root>
    </mxGraphModel>
  </diagram>
</mxfile>
